<svg width="155" height="24" viewBox="0 0 155 24" fill="none" xmlns="http://www.w3.org/2000/svg">
<path d="M2.37803 13.472C2.37803 12.128 2.64203 10.952 3.17003 9.944C3.71403 8.936 4.45803 8.16 5.40203 7.616C6.36203 7.072 7.45003 6.8 8.66603 6.8C9.99403 6.8 11.146 7.136 12.122 7.808C13.098 8.464 13.786 9.32 14.186 10.376V2.24H15.266V20H14.186V16.544C13.802 17.616 13.13 18.496 12.17 19.184C11.21 19.856 10.042 20.192 8.66603 20.192C7.45003 20.192 6.36203 19.92 5.40203 19.376C4.45803 18.816 3.71403 18.032 3.17003 17.024C2.64203 16 2.37803 14.816 2.37803 13.472ZM14.186 13.472C14.186 12.336 13.946 11.336 13.466 10.472C13.002 9.592 12.362 8.92 11.546 8.456C10.73 7.976 9.81803 7.736 8.81003 7.736C7.75403 7.736 6.82603 7.968 6.02603 8.432C5.22603 8.88 4.60203 9.536 4.15403 10.4C3.70603 11.264 3.48203 12.288 3.48203 13.472C3.48203 14.656 3.70603 15.68 4.15403 16.544C4.60203 17.408 5.22603 18.072 6.02603 18.536C6.84203 19 7.77003 19.232 8.81003 19.232C9.81803 19.232 10.73 19 11.546 18.536C12.378 18.056 13.026 17.384 13.49 16.52C13.954 15.64 14.186 14.624 14.186 13.472ZM30.9345 12.608C30.9345 13.184 30.9185 13.616 30.8865 13.904H19.6305C19.6625 15.072 19.9185 16.056 20.3985 16.856C20.8785 17.656 21.5105 18.256 22.2945 18.656C23.0785 19.056 23.9345 19.256 24.8625 19.256C26.1425 19.256 27.2145 18.944 28.0785 18.32C28.9425 17.68 29.4865 16.816 29.7105 15.728H30.8385C30.5825 17.056 29.9265 18.136 28.8705 18.968C27.8145 19.784 26.4785 20.192 24.8625 20.192C23.6465 20.192 22.5585 19.92 21.5985 19.376C20.6385 18.832 19.8865 18.056 19.3425 17.048C18.7985 16.024 18.5265 14.832 18.5265 13.472C18.5265 12.112 18.7905 10.928 19.3185 9.92C19.8625 8.912 20.6145 8.144 21.5745 7.616C22.5345 7.072 23.6305 6.8 24.8625 6.8C26.1105 6.8 27.1905 7.072 28.1025 7.616C29.0305 8.144 29.7345 8.856 30.2145 9.752C30.6945 10.632 30.9345 11.584 30.9345 12.608ZM29.8545 13.016C29.9025 11.864 29.6945 10.888 29.2305 10.088C28.7825 9.288 28.1665 8.696 27.3825 8.312C26.5985 7.912 25.7505 7.712 24.8385 7.712C23.9265 7.712 23.0785 7.912 22.2945 8.312C21.5265 8.696 20.8945 9.288 20.3985 10.088C19.9185 10.888 19.6625 11.864 19.6305 13.016H29.8545ZM38.6145 18.824L43.4145 6.968H44.5665L39.1665 20H38.0385L32.6385 6.968H33.8145L38.6145 18.824ZM57.7055 7.928H54.3215V20H53.2415V7.928H51.2735V6.968H53.2415V6.056C53.2415 4.696 53.5855 3.688 54.2735 3.032C54.9615 2.36 56.0895 2.024 57.6575 2.024V2.984C56.4095 2.984 55.5375 3.224 55.0415 3.704C54.5615 4.184 54.3215 4.968 54.3215 6.056V6.968H57.7055V7.928ZM61.0239 4.064C60.7679 4.064 60.5519 3.984 60.3759 3.824C60.1999 3.648 60.1119 3.416 60.1119 3.128C60.1119 2.856 60.1999 2.632 60.3759 2.456C60.5519 2.28 60.7679 2.192 61.0239 2.192C61.2799 2.192 61.4959 2.28 61.6719 2.456C61.8479 2.632 61.9359 2.856 61.9359 3.128C61.9359 3.416 61.8479 3.648 61.6719 3.824C61.4959 3.984 61.2799 4.064 61.0239 4.064ZM61.5519 6.968V20H60.4719V6.968H61.5519ZM71.391 6.704C72.943 6.704 74.207 7.184 75.183 8.144C76.159 9.088 76.647 10.496 76.647 12.368V20H75.591V12.44C75.591 10.888 75.199 9.704 74.415 8.888C73.631 8.056 72.567 7.64 71.223 7.64C69.815 7.64 68.687 8.088 67.839 8.984C67.007 9.88 66.591 11.208 66.591 12.968V20H65.511V6.968H66.591V9.728C66.959 8.752 67.567 8.008 68.415 7.496C69.279 6.968 70.271 6.704 71.391 6.704ZM79.7921 13.472C79.7921 12.128 80.0561 10.952 80.5841 9.944C81.1281 8.936 81.8721 8.16 82.8161 7.616C83.7761 7.072 84.8641 6.8 86.0801 6.8C87.4561 6.8 88.6241 7.136 89.5841 7.808C90.5441 8.48 91.2161 9.336 91.6001 10.376V6.968H92.6801V20H91.6001V16.568C91.2161 17.624 90.5361 18.496 89.5601 19.184C88.6001 19.856 87.4401 20.192 86.0801 20.192C84.8641 20.192 83.7761 19.92 82.8161 19.376C81.8721 18.816 81.1281 18.032 80.5841 17.024C80.0561 16 79.7921 14.816 79.7921 13.472ZM91.6001 13.472C91.6001 12.336 91.3601 11.336 90.8801 10.472C90.4161 9.592 89.7761 8.92 88.9601 8.456C88.1441 7.976 87.2321 7.736 86.2241 7.736C85.1681 7.736 84.2401 7.968 83.4401 8.432C82.6401 8.88 82.0161 9.536 81.5681 10.4C81.1201 11.264 80.8961 12.288 80.8961 13.472C80.8961 14.656 81.1201 15.68 81.5681 16.544C82.0161 17.408 82.6401 18.072 83.4401 18.536C84.2561 19 85.1841 19.232 86.2241 19.232C87.2321 19.232 88.1441 19 88.9601 18.536C89.7921 18.056 90.4401 17.384 90.9041 16.52C91.3681 15.64 91.6001 14.624 91.6001 13.472ZM102.493 6.704C104.045 6.704 105.309 7.184 106.285 8.144C107.261 9.088 107.749 10.496 107.749 12.368V20H106.693V12.44C106.693 10.888 106.301 9.704 105.517 8.888C104.733 8.056 103.669 7.64 102.325 7.64C100.917 7.64 99.7885 8.088 98.9405 8.984C98.1085 9.88 97.6925 11.208 97.6925 12.968V20H96.6125V6.968H97.6925V9.728C98.0605 8.752 98.6685 8.008 99.5165 7.496C100.381 6.968 101.373 6.704 102.493 6.704ZM110.894 13.472C110.894 12.112 111.158 10.928 111.686 9.92C112.23 8.912 112.974 8.144 113.918 7.616C114.878 7.072 115.974 6.8 117.206 6.8C118.838 6.8 120.174 7.208 121.214 8.024C122.27 8.84 122.926 9.936 123.182 11.312H122.054C121.846 10.192 121.302 9.312 120.422 8.672C119.558 8.032 118.486 7.712 117.206 7.712C116.246 7.712 115.374 7.928 114.59 8.36C113.806 8.776 113.174 9.424 112.694 10.304C112.23 11.168 111.998 12.224 111.998 13.472C111.998 14.736 112.23 15.8 112.694 16.664C113.174 17.528 113.806 18.176 114.59 18.608C115.374 19.04 116.246 19.256 117.206 19.256C118.486 19.256 119.558 18.936 120.422 18.296C121.302 17.656 121.846 16.776 122.054 15.656H123.182C122.926 17.016 122.27 18.112 121.214 18.944C120.158 19.776 118.822 20.192 117.206 20.192C115.974 20.192 114.878 19.92 113.918 19.376C112.974 18.832 112.23 18.056 111.686 17.048C111.158 16.024 110.894 14.832 110.894 13.472ZM138.208 12.608C138.208 13.184 138.192 13.616 138.16 13.904H126.904C126.936 15.072 127.192 16.056 127.672 16.856C128.152 17.656 128.784 18.256 129.568 18.656C130.352 19.056 131.208 19.256 132.136 19.256C133.416 19.256 134.488 18.944 135.352 18.32C136.216 17.68 136.76 16.816 136.984 15.728H138.112C137.856 17.056 137.2 18.136 136.144 18.968C135.088 19.784 133.752 20.192 132.136 20.192C130.92 20.192 129.832 19.92 128.872 19.376C127.912 18.832 127.16 18.056 126.616 17.048C126.072 16.024 125.8 14.832 125.8 13.472C125.8 12.112 126.064 10.928 126.592 9.92C127.136 8.912 127.888 8.144 128.848 7.616C129.808 7.072 130.904 6.8 132.136 6.8C133.384 6.8 134.464 7.072 135.376 7.616C136.304 8.144 137.008 8.856 137.488 9.752C137.968 10.632 138.208 11.584 138.208 12.608ZM137.128 13.016C137.176 11.864 136.968 10.888 136.504 10.088C136.056 9.288 135.44 8.696 134.656 8.312C133.872 7.912 133.024 7.712 132.112 7.712C131.2 7.712 130.352 7.912 129.568 8.312C128.8 8.696 128.168 9.288 127.672 10.088C127.192 10.888 126.936 11.864 126.904 13.016H137.128Z" fill="#012E33"/>
<path d="M47.8845 20.168C47.3885 20.168 46.9725 20 46.6365 19.664C46.3005 19.328 46.1325 18.912 46.1325 18.416C46.1325 17.92 46.3005 17.504 46.6365 17.168C46.9725 16.832 47.3885 16.664 47.8845 16.664C48.3645 16.664 48.7725 16.832 49.1085 17.168C49.4445 17.504 49.6125 17.92 49.6125 18.416C49.6125 18.912 49.4445 19.328 49.1085 19.664C48.7725 20 48.3645 20.168 47.8845 20.168ZM152.536 15.872C152.536 16.64 152.336 17.336 151.936 17.96C151.536 18.584 150.912 19.088 150.064 19.472C149.232 19.856 148.2 20.056 146.968 20.072V22.88H146.512V20.072C145.344 20.04 144.248 19.808 143.224 19.376C142.216 18.928 141.44 18.368 140.896 17.696L141.232 17.384C141.76 18.008 142.496 18.528 143.44 18.944C144.4 19.36 145.424 19.584 146.512 19.616V11.768C145.408 11.496 144.504 11.216 143.8 10.928C143.112 10.624 142.536 10.192 142.072 9.632C141.608 9.056 141.376 8.296 141.376 7.352C141.376 6.216 141.808 5.248 142.672 4.448C143.536 3.648 144.816 3.208 146.512 3.128V0.319999H146.968V3.128H146.992C147.888 3.128 148.768 3.272 149.632 3.56C150.496 3.832 151.24 4.2 151.864 4.664L151.6 5.048C150.944 4.568 150.208 4.208 149.392 3.968C148.592 3.712 147.8 3.584 147.016 3.584H146.968V11.408C148.2 11.712 149.176 12.008 149.896 12.296C150.632 12.568 151.256 12.992 151.768 13.568C152.28 14.128 152.536 14.896 152.536 15.872ZM141.856 7.376C141.856 8.192 142.064 8.856 142.48 9.368C142.896 9.864 143.424 10.248 144.064 10.52C144.704 10.792 145.52 11.056 146.512 11.312V3.608C144.992 3.672 143.832 4.056 143.032 4.76C142.248 5.448 141.856 6.32 141.856 7.376ZM146.968 19.616C148.632 19.6 149.896 19.24 150.76 18.536C151.624 17.832 152.056 16.944 152.056 15.872C152.056 15.024 151.824 14.344 151.36 13.832C150.912 13.32 150.352 12.936 149.68 12.68C149.008 12.424 148.104 12.16 146.968 11.888V19.616Z" fill="#49AA26"/>
</svg>
