<svg width="155" height="24" viewBox="0 0 155 24" fill="none" xmlns="http://www.w3.org/2000/svg">
<path d="M1.67153 13.424C1.67153 12.08 1.94353 10.904 2.48753 9.896C3.03153 8.872 3.77553 8.088 4.71953 7.544C5.67953 6.984 6.75953 6.704 7.95953 6.704C9.11153 6.704 10.1515 6.984 11.0795 7.544C12.0075 8.104 12.6875 8.832 13.1195 9.728V2.24H14.7995V20H13.1195V17.072C12.7195 17.984 12.0635 18.736 11.1515 19.328C10.2395 19.904 9.16753 20.192 7.93553 20.192C6.73553 20.192 5.65553 19.912 4.69553 19.352C3.75153 18.792 3.00753 18 2.46353 16.976C1.93553 15.952 1.67153 14.768 1.67153 13.424ZM13.1195 13.448C13.1195 12.392 12.9035 11.464 12.4715 10.664C12.0395 9.864 11.4475 9.248 10.6955 8.816C9.95953 8.384 9.14353 8.168 8.24753 8.168C7.31953 8.168 6.48753 8.376 5.75153 8.792C5.01553 9.208 4.43153 9.816 3.99953 10.616C3.58353 11.4 3.37553 12.336 3.37553 13.424C3.37553 14.496 3.58353 15.44 3.99953 16.256C4.43153 17.056 5.01553 17.672 5.75153 18.104C6.48753 18.52 7.31953 18.728 8.24753 18.728C9.14353 18.728 9.95953 18.512 10.6955 18.08C11.4475 17.648 12.0395 17.032 12.4715 16.232C12.9035 15.432 13.1195 14.504 13.1195 13.448ZM30.4908 12.776C30.4908 13.352 30.4748 13.792 30.4428 14.096H19.5708C19.6188 15.088 19.8588 15.936 20.2908 16.64C20.7228 17.344 21.2908 17.88 21.9948 18.248C22.6988 18.6 23.4668 18.776 24.2988 18.776C25.3868 18.776 26.2988 18.512 27.0348 17.984C27.7868 17.456 28.2828 16.744 28.5228 15.848H30.2988C29.9788 17.128 29.2908 18.176 28.2348 18.992C27.1948 19.792 25.8828 20.192 24.2988 20.192C23.0668 20.192 21.9628 19.92 20.9868 19.376C20.0108 18.816 19.2428 18.032 18.6828 17.024C18.1388 16 17.8668 14.808 17.8668 13.448C17.8668 12.088 18.1388 10.896 18.6828 9.872C19.2268 8.848 19.9868 8.064 20.9628 7.52C21.9388 6.976 23.0508 6.704 24.2988 6.704C25.5468 6.704 26.6348 6.976 27.5628 7.52C28.5068 8.064 29.2268 8.8 29.7228 9.728C30.2348 10.64 30.4908 11.656 30.4908 12.776ZM28.7868 12.728C28.8028 11.752 28.6028 10.92 28.1868 10.232C27.7868 9.544 27.2348 9.024 26.5308 8.672C25.8268 8.32 25.0588 8.144 24.2268 8.144C22.9788 8.144 21.9148 8.544 21.0348 9.344C20.1548 10.144 19.6668 11.272 19.5708 12.728H28.7868ZM38.2205 18.368L42.6365 6.896H44.4125L39.1565 20H37.2605L32.0045 6.896H33.8045L38.2205 18.368ZM57.6386 8.312H54.5906V20H52.9106V8.312H51.0866V6.896H52.9106V5.984C52.9106 4.56 53.2706 3.512 53.9906 2.84C54.7266 2.168 55.9106 1.832 57.5426 1.832V3.272C56.4546 3.272 55.6866 3.48 55.2386 3.896C54.8066 4.312 54.5906 5.008 54.5906 5.984V6.896H57.6386V8.312ZM61.1233 4.424C60.7873 4.424 60.4993 4.304 60.2593 4.064C60.0193 3.824 59.8993 3.528 59.8993 3.176C59.8993 2.824 60.0193 2.536 60.2593 2.312C60.4993 2.072 60.7873 1.952 61.1233 1.952C61.4593 1.952 61.7473 2.072 61.9873 2.312C62.2273 2.536 62.3473 2.824 62.3473 3.176C62.3473 3.528 62.2273 3.824 61.9873 4.064C61.7473 4.304 61.4593 4.424 61.1233 4.424ZM61.9633 6.896V20H60.2833V6.896H61.9633ZM71.9117 6.656C73.4797 6.656 74.7597 7.144 75.7517 8.12C76.7437 9.08 77.2397 10.48 77.2397 12.32V20H75.5837V12.512C75.5837 11.088 75.2237 10 74.5037 9.248C73.7997 8.496 72.8317 8.12 71.5997 8.12C70.3357 8.12 69.3277 8.52 68.5757 9.32C67.8237 10.12 67.4477 11.296 67.4477 12.848V20H65.7677V6.896H67.4477V9.128C67.8637 8.328 68.4637 7.72 69.2477 7.304C70.0317 6.872 70.9197 6.656 71.9117 6.656ZM80.1872 13.424C80.1872 12.08 80.4512 10.904 80.9792 9.896C81.5232 8.872 82.2672 8.088 83.2112 7.544C84.1712 6.984 85.2512 6.704 86.4512 6.704C87.6992 6.704 88.7712 6.992 89.6672 7.568C90.5792 8.144 91.2352 8.88 91.6352 9.776V6.896H93.3152V20H91.6352V17.096C91.2192 17.992 90.5552 18.736 89.6432 19.328C88.7472 19.904 87.6752 20.192 86.4272 20.192C85.2432 20.192 84.1712 19.912 83.2112 19.352C82.2672 18.792 81.5232 18 80.9792 16.976C80.4512 15.952 80.1872 14.768 80.1872 13.424ZM91.6352 13.448C91.6352 12.392 91.4192 11.464 90.9872 10.664C90.5552 9.864 89.9632 9.248 89.2112 8.816C88.4752 8.384 87.6592 8.168 86.7632 8.168C85.8352 8.168 85.0032 8.376 84.2672 8.792C83.5312 9.208 82.9472 9.816 82.5152 10.616C82.0992 11.4 81.8912 12.336 81.8912 13.424C81.8912 14.496 82.0992 15.44 82.5152 16.256C82.9472 17.056 83.5312 17.672 84.2672 18.104C85.0032 18.52 85.8352 18.728 86.7632 18.728C87.6592 18.728 88.4752 18.512 89.2112 18.08C89.9632 17.648 90.5552 17.032 90.9872 16.232C91.4192 15.432 91.6352 14.504 91.6352 13.448ZM103.294 6.656C104.862 6.656 106.142 7.144 107.134 8.12C108.126 9.08 108.622 10.48 108.622 12.32V20H106.966V12.512C106.966 11.088 106.606 10 105.886 9.248C105.182 8.496 104.214 8.12 102.982 8.12C101.718 8.12 100.71 8.52 99.9585 9.32C99.2065 10.12 98.8305 11.296 98.8305 12.848V20H97.1505V6.896H98.8305V9.128C99.2465 8.328 99.8465 7.72 100.63 7.304C101.414 6.872 102.302 6.656 103.294 6.656ZM111.57 13.448C111.57 12.088 111.842 10.904 112.386 9.896C112.93 8.872 113.682 8.088 114.642 7.544C115.602 6.984 116.698 6.704 117.93 6.704C119.546 6.704 120.874 7.104 121.914 7.904C122.97 8.704 123.65 9.792 123.954 11.168H122.154C121.93 10.224 121.442 9.488 120.69 8.96C119.954 8.416 119.034 8.144 117.93 8.144C117.05 8.144 116.258 8.344 115.554 8.744C114.85 9.144 114.29 9.744 113.874 10.544C113.474 11.328 113.274 12.296 113.274 13.448C113.274 14.6 113.474 15.576 113.874 16.376C114.29 17.176 114.85 17.776 115.554 18.176C116.258 18.576 117.05 18.776 117.93 18.776C119.034 18.776 119.954 18.512 120.69 17.984C121.442 17.44 121.93 16.688 122.154 15.728H123.954C123.65 17.072 122.97 18.152 121.914 18.968C120.858 19.784 119.53 20.192 117.93 20.192C116.698 20.192 115.602 19.92 114.642 19.376C113.682 18.816 112.93 18.032 112.386 17.024C111.842 16 111.57 14.808 111.57 13.448ZM138.913 12.776C138.913 13.352 138.897 13.792 138.865 14.096H127.993C128.041 15.088 128.281 15.936 128.713 16.64C129.145 17.344 129.713 17.88 130.417 18.248C131.121 18.6 131.889 18.776 132.721 18.776C133.809 18.776 134.721 18.512 135.457 17.984C136.209 17.456 136.705 16.744 136.945 15.848H138.721C138.401 17.128 137.713 18.176 136.657 18.992C135.617 19.792 134.305 20.192 132.721 20.192C131.489 20.192 130.385 19.92 129.409 19.376C128.433 18.816 127.665 18.032 127.105 17.024C126.561 16 126.289 14.808 126.289 13.448C126.289 12.088 126.561 10.896 127.105 9.872C127.649 8.848 128.409 8.064 129.385 7.52C130.361 6.976 131.473 6.704 132.721 6.704C133.969 6.704 135.057 6.976 135.985 7.52C136.929 8.064 137.649 8.8 138.145 9.728C138.657 10.64 138.913 11.656 138.913 12.776ZM137.209 12.728C137.225 11.752 137.025 10.92 136.609 10.232C136.209 9.544 135.657 9.024 134.953 8.672C134.249 8.32 133.481 8.144 132.649 8.144C131.401 8.144 130.337 8.544 129.457 9.344C128.577 10.144 128.089 11.272 127.993 12.728H137.209Z" fill="#CAD9C7"/>
<path d="M47.6735 20.168C47.1775 20.168 46.7615 20 46.4255 19.664C46.0895 19.328 45.9215 18.912 45.9215 18.416C45.9215 17.92 46.0895 17.504 46.4255 17.168C46.7615 16.832 47.1775 16.664 47.6735 16.664C48.1535 16.664 48.5615 16.832 48.8975 17.168C49.2335 17.504 49.4015 17.92 49.4015 18.416C49.4015 18.912 49.2335 19.328 48.8975 19.664C48.5615 20 48.1535 20.168 47.6735 20.168ZM153.098 15.872C153.098 16.64 152.898 17.336 152.498 17.96C152.098 18.584 151.474 19.088 150.626 19.472C149.794 19.856 148.762 20.056 147.53 20.072V22.88H147.074V20.072C145.906 20.04 144.81 19.808 143.786 19.376C142.778 18.928 142.002 18.368 141.458 17.696L141.794 17.384C142.322 18.008 143.058 18.528 144.002 18.944C144.962 19.36 145.986 19.584 147.074 19.616V11.768C145.97 11.496 145.066 11.216 144.362 10.928C143.674 10.624 143.098 10.192 142.634 9.632C142.17 9.056 141.938 8.296 141.938 7.352C141.938 6.216 142.37 5.248 143.234 4.448C144.098 3.648 145.378 3.208 147.074 3.128V0.319999H147.53V3.128H147.554C148.45 3.128 149.33 3.272 150.194 3.56C151.058 3.832 151.802 4.2 152.426 4.664L152.162 5.048C151.506 4.568 150.77 4.208 149.954 3.968C149.154 3.712 148.362 3.584 147.578 3.584H147.53V11.408C148.762 11.712 149.738 12.008 150.458 12.296C151.194 12.568 151.818 12.992 152.33 13.568C152.842 14.128 153.098 14.896 153.098 15.872ZM142.418 7.376C142.418 8.192 142.626 8.856 143.042 9.368C143.458 9.864 143.986 10.248 144.626 10.52C145.266 10.792 146.082 11.056 147.074 11.312V3.608C145.554 3.672 144.394 4.056 143.594 4.76C142.81 5.448 142.418 6.32 142.418 7.376ZM147.53 19.616C149.194 19.6 150.458 19.24 151.322 18.536C152.186 17.832 152.618 16.944 152.618 15.872C152.618 15.024 152.386 14.344 151.922 13.832C151.474 13.32 150.914 12.936 150.242 12.68C149.57 12.424 148.666 12.16 147.53 11.888V19.616Z" fill="#49AA26"/>
</svg>
